<?xml version="1.0" encoding="utf-8"?>
<svg width="768px" height="768px" viewBox="0 0 768 768" version="1.1" xmlns:xlink="http://www.w3.org/1999/xlink" xmlns="http://www.w3.org/2000/svg">
  <g id="编组-3-2">
    <path d="M0 0L768 0L768 768L0 768L0 0L0 0Z" id="矩形" fill="#3782F2" fill-rule="evenodd" stroke="none" />
    <g id="编组" transform="translate(176.25 118)">
      <g id="P" transform="translate(20.5 20)">
        <g id="P" fill="#2E2A2A" fill-opacity="0.49803922">
          <path d="M309.248 114.688L44.032 114.688C31.744 114.688 27.136 122.88 33.792 133.12L37.888 139.776C40.448 144.384 41.472 147.456 41.472 152.064L41.472 389.12C41.472 398.848 47.104 404.48 56.832 404.48L123.392 404.48C133.12 404.48 138.752 398.848 138.752 389.12L138.752 316.416C138.752 309.76 142.336 306.176 148.992 306.176L309.76 306.176C324.608 306.176 341.504 291.84 343.04 271.872L343.04 148.48C343.04 126.464 331.264 114.688 309.248 114.688ZM244.736 174.08L244.736 246.784C244.736 253.44 241.152 257.024 234.496 257.024L148.992 257.024C142.336 257.024 138.752 253.44 138.752 246.784L138.752 174.08C138.752 167.424 142.336 163.84 148.992 163.84L234.496 163.84C241.152 163.84 244.736 167.424 244.736 174.08Z" />
        </g>
      </g>
      <g id="P">
        <g id="P" fill="#FFFFFF">
          <path d="M309.248 114.688L44.032 114.688C31.744 114.688 27.136 122.88 33.792 133.12L37.888 139.776C40.448 144.384 41.472 147.456 41.472 152.064L41.472 389.12C41.472 398.848 47.104 404.48 56.832 404.48L123.392 404.48C133.12 404.48 138.752 398.848 138.752 389.12L138.752 316.416C138.752 309.76 142.336 306.176 148.992 306.176L309.76 306.176C324.608 306.176 341.504 291.84 343.04 271.872L343.04 148.48C343.04 126.464 331.264 114.688 309.248 114.688ZM244.736 174.08L244.736 246.784C244.736 253.44 241.152 257.024 234.496 257.024L148.992 257.024C142.336 257.024 138.752 253.44 138.752 246.784L138.752 174.08C138.752 167.424 142.336 163.84 148.992 163.84L234.496 163.84C241.152 163.84 244.736 167.424 244.736 174.08Z" />
        </g>
      </g>
    </g>
  </g>
</svg>